<?xml version="1.0" encoding="utf-8"?>
<svg viewBox="0 0 54 54" xmlns="http://www.w3.org/2000/svg" xmlns:bx="https://boxy-svg.com">
  <circle style="fill: rgb(247, 148, 19); stroke: rgb(255, 200, 0); stroke-width: 2px;" cx="27" cy="27" r="26" bx:origin="0.5 0.5"/>
  <path d="M 8.174 32.127 L 2.325 32.127 L 2.768 30.384 L 4.181 30.107 L 6.303 21.766 L 5.031 21.488 L 5.475 19.738 L 6.818 19.738 L 10.023 19.738 L 13.238 27.667 L 13.287 27.667 L 14.788 21.766 L 13.148 21.488 L 13.593 19.738 L 18.091 19.738 L 19.451 19.738 L 19.004 21.488 L 17.575 21.766 L 14.941 32.127 L 11.845 32.127 L 8.488 24.365 L 8.428 24.365 L 6.969 30.107 L 8.617 30.384 L 8.174 32.127 Z" style="fill: rgb(255, 255, 255); white-space: pre;" transform="matrix(0.999994, -0.003349, 0.003349, 0.999994, -0.086799, 0.036614)"/>
  <path d="M 29.046 38.571 L 18.316 38.571 L 18.316 35.571 L 20.526 35.101 L 20.526 20.731 L 18.316 20.261 L 18.316 17.241 L 20.526 17.241 L 27.966 17.241 C 30.653 17.241 32.746 17.734 34.246 18.721 C 35.753 19.708 36.506 21.178 36.506 23.131 C 36.506 24.138 36.266 25.038 35.786 25.831 C 35.306 26.631 34.57 27.234 33.576 27.641 C 34.423 27.828 35.116 28.144 35.656 28.591 C 36.196 29.031 36.593 29.568 36.846 30.201 C 37.1 30.828 37.226 31.508 37.226 32.241 C 37.226 34.334 36.526 35.911 35.126 36.971 C 33.733 38.038 31.706 38.571 29.046 38.571 Z M 25.666 29.491 L 25.666 34.661 L 29.046 34.661 C 30.066 34.661 30.833 34.461 31.346 34.061 C 31.853 33.661 32.106 33.051 32.106 32.231 C 32.106 31.611 32.01 31.101 31.816 30.701 C 31.623 30.294 31.32 29.991 30.906 29.791 C 30.5 29.591 29.963 29.491 29.296 29.491 L 25.666 29.491 Z M 25.666 21.171 L 25.666 26.091 L 27.746 26.091 C 28.96 26.091 29.866 25.898 30.466 25.511 C 31.066 25.124 31.366 24.528 31.366 23.721 C 31.366 22.828 31.086 22.181 30.526 21.781 C 29.96 21.374 29.106 21.171 27.966 21.171 L 25.666 21.171 Z" style="fill: rgb(255, 255, 255); white-space: pre;" transform="matrix(0.965926, 0.258819, -0.258819, 0.965926, 8.168874, -6.236788)"/>
  <path d="M 45.47 32.442 L 39.604 32.442 L 40.047 30.699 L 41.477 30.421 L 43.525 22.366 L 41.506 22.366 L 41.092 23.704 L 38.714 23.704 L 39.642 20.052 L 51.764 20.052 L 50.836 23.704 L 48.442 23.704 L 48.707 22.366 L 46.672 22.366 L 44.623 30.421 L 45.912 30.699 L 45.47 32.442 Z" style="fill: rgb(255, 255, 255); white-space: pre;" transform="matrix(0.999994, -0.003349, 0.003349, 0.999994, -0.087659, 0.151673)"/>
</svg>